# xmcd
#
# Track frame offsets:
# 150
# 26190
# 46957
# 65750
# 95592
# 135075
# 149332
# 176540
# 198970
# 231995
# 256812
#
# Disc length: 3573 seconds
#
#
# Revision: 1
# Processed by: cddbd v1.5.1PL0 Copyright (c) Steve Scherf et al.
# Submitted via: FreeRIP 2.93 
#
DISCID=990df30b
DTITLE=Cassandra Wilson - Jazz and dintorni - Vol. 4
DYEAR=1900
DGENRE=Jazz
TTITLE0=Polka Dots and Moonbeams
TTITLE1=Little One I'll Miss You
TTITLE2=Blue in Green
TTITLE3=Baubles, Bangles and Beads
TTITLE4=Body and Soul
TTITLE5=Blue Skies
TTITLE6=My One and Only Love
TTITLE7=Autumn Nocturne
TTITLE8=Shall We Dance
TTITLE9=Sweet Lorraine
TTITLE10=Let's Face the Music
EXTD=
EXTT0=
EXTT1=
EXTT2=
EXTT3=
EXTT4=
EXTT5=
EXTT6=
EXTT7=
EXTT8=
EXTT9=
EXTT10=
PLAYORDER=
